<svg width="34" height="35" viewBox="0 0 34 35" fill="none" xmlns="http://www.w3.org/2000/svg">
<path d="M25.2149 28.5284C24.8943 28.59 24.5677 28.5081 24.3069 28.3008L0.248692 9.17417C-0.189575 8.82575 -0.0174324 8.05261 0.521547 7.94919L8.78513 6.36255C9.10573 6.30097 9.43228 6.38282 9.69303 6.59012L33.7513 25.7168C34.1896 26.0652 34.0174 26.8383 33.4785 26.9418L25.2149 28.5284Z" fill="url(#paint0_linear_868_508)"/>
<path d="M23.7081 14.3896C23.3875 14.4512 23.0609 14.3693 22.8002 14.1621L8.54724 2.83212C8.10895 2.48372 8.28105 1.71057 8.82002 1.60712L17.0835 0.0200261C17.4041 -0.0415795 17.7307 0.040254 17.9914 0.247537L32.2444 11.5775C32.6827 11.9259 32.5105 12.699 31.9716 12.8025L23.7081 14.3896Z" fill="url(#paint1_linear_868_508)"/>
<path d="M17.0197 34.98C16.6991 35.0416 16.3725 34.9597 16.1118 34.7524L1.85883 23.4225C1.42054 23.0741 1.59264 22.301 2.13161 22.1975L10.3951 20.6104C10.7157 20.5488 11.0422 20.6306 11.303 20.8379L25.556 32.1679C25.9943 32.5163 25.8221 33.2894 25.2832 33.3929L17.0197 34.98Z" fill="url(#paint2_linear_868_508)"/>
<defs>
<linearGradient id="paint0_linear_868_508" x1="1.04024" y1="-1.63244" x2="32.1438" y2="37.2653" gradientUnits="userSpaceOnUse">
<stop stop-color="#08E7F7"/>
<stop offset="1" stop-color="#7D38E4"/>
</linearGradient>
<linearGradient id="paint1_linear_868_508" x1="1.04024" y1="-1.63244" x2="32.1438" y2="37.2653" gradientUnits="userSpaceOnUse">
<stop stop-color="#08E7F7"/>
<stop offset="1" stop-color="#7D38E4"/>
</linearGradient>
<linearGradient id="paint2_linear_868_508" x1="1.04024" y1="-1.63244" x2="32.1438" y2="37.2653" gradientUnits="userSpaceOnUse">
<stop stop-color="#08E7F7"/>
<stop offset="1" stop-color="#7D38E4"/>
</linearGradient>
</defs>
</svg>
